<svg xmlns="http://www.w3.org/2000/svg" width="136" height="262"><g fill="#F4F4F4"><path d="M74.79 153.81l.07 48.05 4.16-2.41-.07-43.25zM62.14 45.71l-.07-43.25-4.16-2.4.07 48.06 4.16-2.41zM128.78 84.05l-.06-43.25-4.17-2.39.07 48.05 4.16-2.41zM45.55 84.17l-.06-43.24-4.17-2.4.07 48.05 4.16-2.41zM12.23 65l-.06-43.25L8 19.36l.07 48.05L12.23 65zM103.75 45.64l-.06-43.24L99.53 0l.07 48.05 4.15-2.41zM120.42 55.23l-.07-43.25-4.16-2.39.07 48.05 4.16-2.41zM87.17 84.11l-.07-43.25-4.16-2.39.07 48.05 4.16-2.41zM70.51 74.53l-.07-43.25-4.16-2.4.07 48.05 4.16-2.4zM37.18 55.35l-.06-43.24-4.17-2.4.08 48.05 4.15-2.41zM20.52 45.77l-.06-43.25-4.17-2.4.08 48.06 4.15-2.41zM62.14 219.59l-.07-43.25-4.16-2.39.07 48.05 4.16-2.41zM128.78 257.93l-.06-43.24-4.17-2.4.07 48.05 4.16-2.41zM45.55 258.06l-.06-43.25-4.17-2.4.07 48.06 4.16-2.41zM12.23 238.89l-.06-43.25-4.17-2.4.07 48.05 4.16-2.4zM103.75 219.53l-.06-43.25-4.16-2.4.07 48.06 4.15-2.41zM120.42 229.11l-.07-43.24-4.16-2.4.07 48.05 4.16-2.41zM87.17 257.99l-.07-43.24-4.16-2.4.07 48.05 4.16-2.41zM70.51 248.41l-.07-43.25-4.16-2.39.07 48.05 4.16-2.41zM37.18 229.24l-.06-43.25-4.17-2.4.08 48.06 4.15-2.41zM20.52 219.65l-.06-43.25-4.17-2.39.08 48.05 4.15-2.41zM74.79 71.21l.07 48.06 4.16-2.41-.07-43.25zM62.14 137l-.07-43.25-4.16-2.4.07 48.05 4.16-2.4zM128.78 175.34l-.06-43.25-4.17-2.4.07 48.06 4.16-2.41zM45.55 175.46l-.06-43.24-4.17-2.4.07 48.05 4.16-2.41zM12.23 156.29l-.06-43.25L8 110.65l.07 48.05 4.16-2.41zM103.75 136.93l-.06-43.24-4.16-2.4.07 48.05 4.15-2.41zM120.42 146.52l-.07-43.25-4.16-2.4.07 48.06 4.16-2.41zM87.17 175.4l-.07-43.25-4.16-2.39.07 48.05 4.16-2.41zM70.51 165.81l-.07-43.24-4.16-2.4.07 48.05 4.16-2.41zM37.18 146.64l-.06-43.24-4.17-2.4.08 48.05 4.15-2.41zM20.52 137.06l-.06-43.25-4.17-2.4.08 48.06 4.15-2.41z"/></g></svg>